<svg xmlns="http://www.w3.org/2000/svg" version="1.1" xmlns:xlink="http://www.w3.org/1999/xlink" xmlns:svgjs="http://svgjs.dev/svgjs" width="1000" height="1000" viewBox="0 0 1000 1000"><rect width="1000" height="1000" fill="#ffffff"></rect><g transform="matrix(0.7,0,0,0.7,149.57575757575756,282.1265587044535)"><svg viewBox="0 0 396 247" data-background-color="#ffffff" preserveAspectRatio="xMidYMid meet" height="623" width="1000" xmlns="http://www.w3.org/2000/svg" xmlns:xlink="http://www.w3.org/1999/xlink"><g id="tight-bounds" transform="matrix(1,0,0,1,0.2400000000000091,-0.09999999999999432)"><svg viewBox="0 0 395.52 247.2" height="247.2" width="395.52"><g><svg></svg></g><g><svg viewBox="0 0 395.52 247.2" height="247.2" width="395.52"><g transform="matrix(1,0,0,1,75.54432,65.21875653543307)"><svg viewBox="0 0 244.43135999999998 116.76248692913384" height="116.76248692913384" width="244.43135999999998"><g><svg viewBox="0 0 244.43135999999998 116.76248692913384" height="116.76248692913384" width="244.43135999999998"><g><svg viewBox="0 0 244.43135999999998 116.76248692913384" height="116.76248692913384" width="244.43135999999998"><g><svg viewBox="0 0 244.43135999999998 116.76248692913384" height="116.76248692913384" width="244.43135999999998"><g id="textblocktransform"><svg viewBox="0 0 244.43135999999998 116.76248692913384" height="116.76248692913384" width="244.43135999999998" id="textblock"><g><svg viewBox="0 0 244.43135999999998 116.76248692913384" height="116.76248692913384" width="244.43135999999998"><g transform="matrix(1,0,0,1,0,0)"><svg width="244.43135999999998" viewBox="3 -35.900001525878906 76.19999694824219 36.400001525878906" height="116.76248692913384" data-palette-color="#50a060"><path d="M20.95 0L4 0 4-27.35 3-32.35 4-35.4 20.95-35.4Q24.5-35.4 27.83-34.73 31.15-34.05 33.77-32.2 36.4-30.35 37.95-26.9 39.5-23.45 39.5-17.95L39.5-17.95Q39.5-12.45 37.93-8.93 36.35-5.4 33.7-3.45 31.05-1.5 27.75-0.75 24.45 0 20.95 0L20.95 0ZM15.1-25.9L15.1-9.5 18.9-9.5Q21.85-9.5 23.88-10.15 25.9-10.8 26.95-12.63 28-14.45 28-17.95L28-17.95Q28-21.5 26.93-23.18 25.85-24.85 23.83-25.38 21.8-25.9 18.9-25.9L18.9-25.9 15.1-25.9ZM61.2 0.5L61.2 0.5Q58 0.5 54.82-0.28 51.65-1.05 49.02-3.05 46.4-5.05 44.8-8.6 43.2-12.15 43.2-17.7L43.2-17.7Q43.2-23.25 44.8-26.8 46.4-30.35 49.02-32.35 51.65-34.35 54.82-35.13 58-35.9 61.2-35.9L61.2-35.9Q64.4-35.9 67.57-35.1 70.75-34.3 73.37-32.3 76-30.3 77.6-26.75 79.2-23.2 79.2-17.7L79.2-17.7Q79.2-12.2 77.6-8.65 76-5.1 73.37-3.1 70.75-1.1 67.57-0.3 64.4 0.5 61.2 0.5ZM61.2-9.5L61.2-9.5Q64.45-9.5 66.1-11.48 67.75-13.45 67.75-17.7L67.75-17.7Q67.75-21.9 66.1-23.9 64.45-25.9 61.2-25.9L61.2-25.9Q54.7-25.9 54.7-17.7L54.7-17.7Q54.7-13.5 56.32-11.5 57.95-9.5 61.2-9.5Z" opacity="1" transform="matrix(1,0,0,1,0,0)" fill="#50a060" class="undefined-text-0" data-fill-palette-color="primary" id="text-0"></path></svg></g></svg></g></svg></g></svg></g></svg></g></svg></g></svg></g><g><path d="M0 123.6c0-68.262 55.338-123.6 123.6-123.6 41.327 0 77.917 20.283 100.358 51.436l-6.566 0c-21.637-28.08-55.602-46.171-93.792-46.171-65.355 0-118.335 52.98-118.335 118.335 0 65.355 52.98 118.335 118.335 118.335 38.19 0 72.155-18.091 93.792-46.171h6.566c-22.441 31.154-59.031 51.436-100.358 51.436-68.262 0-123.6-55.338-123.6-123.6z" fill="#50a060" stroke="transparent" data-fill-palette-color="tertiary"></path></g></svg></g><defs></defs></svg><rect width="395.52" height="247.2" fill="none" stroke="none" visibility="hidden"></rect></g></svg></g></svg>